<svg width="18" height="14" viewBox="0 0 18 14" fill="none" xmlns="http://www.w3.org/2000/svg">
    <path d="M17.1022 13.5366H5.06567C4.56959 13.5366 4.16751 13.1345 4.16751 12.6384C4.16751 12.1423 4.56959 11.7402 5.06567 11.7402H17.1019C17.598 11.7402 18.0001 12.1423 18.0001 12.6384C18.0001 13.1345 17.5983 13.5366 17.1022 13.5366Z"
          fill="#112878"/>
    <path d="M17.1022 7.89983H5.06567C4.56959 7.89983 4.16751 7.49776 4.16751 7.00167C4.16751 6.50559 4.56959 6.10352 5.06567 6.10352H17.1019C17.598 6.10352 18.0001 6.50559 18.0001 7.00167C18.0004 7.49776 17.5983 7.89983 17.1022 7.89983Z"
          fill="#112878"/>
    <path d="M17.1022 2.26116H5.06567C4.56959 2.26116 4.16751 1.85909 4.16751 1.363C4.16751 0.866919 4.56959 0.464844 5.06567 0.464844H17.1019C17.598 0.464844 18.0001 0.866919 18.0001 1.363C18.0001 1.85909 17.5983 2.26116 17.1022 2.26116Z"
          fill="#112878"/>
    <path d="M1.20623 2.63902C1.87241 2.63902 2.41245 2.09897 2.41245 1.43279C2.41245 0.766609 1.87241 0.226562 1.20623 0.226562C0.540046 0.226562 0 0.766609 0 1.43279C0 2.09897 0.540046 2.63902 1.20623 2.63902Z"
          fill="#112878"/>
    <path d="M1.20623 8.20738C1.87241 8.20738 2.41245 7.66733 2.41245 7.00115C2.41245 6.33497 1.87241 5.79492 1.20623 5.79492C0.540046 5.79492 0 6.33497 0 7.00115C0 7.66733 0.540046 8.20738 1.20623 8.20738Z"
          fill="#112878"/>
    <path d="M1.20623 13.7757C1.87241 13.7757 2.41245 13.2357 2.41245 12.5695C2.41245 11.9033 1.87241 11.3633 1.20623 11.3633C0.540046 11.3633 0 11.9033 0 12.5695C0 13.2357 0.540046 13.7757 1.20623 13.7757Z"
          fill="#112878"/>
</svg>
