<svg width="28" height="28" viewBox="0 0 28 28" fill="none" xmlns="http://www.w3.org/2000/svg">
    <path d="M25.4065 18.9258V17.8892V11.667V5.4448C25.4065 4.87533 24.9404 4.4082 24.3699 4.4082H3.63007C3.05961 4.4082 2.59216 4.87303 2.59216 5.4448V11.667V17.8892V18.9258L0 22.037C0 22.8941 0.696096 23.5912 1.55556 23.5912H26.4444C27.3026 23.5912 28 22.8938 28 22.037L25.4065 18.9258ZM16.0755 23.0745H11.9268C11.7834 23.0745 11.6673 22.9594 11.6673 22.8151C11.6673 22.6707 11.7834 22.5556 11.9268 22.5556H16.0758C16.2179 22.5556 16.3353 22.6707 16.3353 22.8151C16.3314 22.9597 16.2175 23.0745 16.0755 23.0745ZM9.72534 22.0379L10.5166 21.0883H17.4818L18.2743 22.0379H9.72534ZM23.9471 17.0918C23.9471 17.592 23.5397 17.9968 23.043 17.9968H4.95665C4.46 17.9968 4.05258 17.5884 4.05258 17.0918V6.24423C4.05258 5.74397 4.46 5.33917 4.95665 5.33917H23.0433C23.54 5.33917 23.9474 5.7466 23.9474 6.24423C23.9471 6.24423 23.9471 17.0918 23.9471 17.0918Z"
          fill="#112878"/>
</svg>
