<svg width="34" height="28" viewBox="0 0 34 28" fill="none" xmlns="http://www.w3.org/2000/svg">
    <path d="M31.4065 18.9258V17.8892V11.667V5.4448C31.4065 4.87533 30.9404 4.4082 30.3699 4.4082H9.63007C9.05961 4.4082 8.59216 4.87303 8.59216 5.4448V11.667V17.8892V18.9258L6 22.037C6 22.8941 6.6961 23.5912 7.55556 23.5912H32.4444C33.3026 23.5912 34 22.8938 34 22.037L31.4065 18.9258ZM22.0755 23.0745H17.9268C17.7834 23.0745 17.6673 22.9594 17.6673 22.8151C17.6673 22.6707 17.7834 22.5556 17.9268 22.5556H22.0758C22.2179 22.5556 22.3353 22.6707 22.3353 22.8151C22.3314 22.9597 22.2175 23.0745 22.0755 23.0745ZM15.7253 22.0379L16.5166 21.0883H23.4818L24.2743 22.0379H15.7253ZM29.9471 17.0918C29.9471 17.592 29.5397 17.9968 29.043 17.9968H10.9567C10.46 17.9968 10.0526 17.5884 10.0526 17.0918V6.24423C10.0526 5.74397 10.46 5.33917 10.9567 5.33917H29.0433C29.54 5.33917 29.9474 5.7466 29.9474 6.24423C29.9471 6.24423 29.9471 17.0918 29.9471 17.0918Z"
          fill="#112878"/>
    <path d="M1.32726 7.30441C1.43353 7.66877 1.58101 8.0201 1.76752 8.34976L1.23617 9.0199C1.06267 9.23895 1.08219 9.55125 1.27738 9.74861L2.1926 10.6638C2.38995 10.8612 2.70226 10.8785 2.9213 10.705L3.58711 10.178C3.92978 10.3754 4.29413 10.5293 4.67366 10.6378L4.77342 11.4944C4.80596 11.772 5.04018 11.9802 5.31778 11.9802H6.61253C6.89014 11.9802 7.12436 11.772 7.15689 11.4944L7.25232 10.6681C7.66005 10.5619 8.05042 10.4036 8.41694 10.1975L9.06107 10.7072C9.28011 10.8807 9.59241 10.8612 9.78977 10.666L10.705 9.75076C10.9023 9.5534 10.9197 9.2411 10.7462 9.02205L10.2452 8.3866C10.4534 8.02657 10.6161 7.64272 10.7245 7.2415L11.4966 7.15258C11.7742 7.12005 11.9824 6.88582 11.9824 6.60822V5.31347C11.9824 5.03587 11.7742 4.80164 11.4966 4.76911L10.7354 4.68019C10.6312 4.28331 10.4751 3.90377 10.2756 3.5481L10.744 2.95602C10.9175 2.73698 10.898 2.42468 10.7028 2.22732L9.78979 1.31427C9.59244 1.11691 9.28013 1.09956 9.06109 1.27306L8.48637 1.7285C8.11334 1.50946 7.71427 1.34246 7.29572 1.22969L7.20897 0.485803C7.17643 0.208201 6.94221 0 6.66461 0H5.36986C5.09225 0 4.85803 0.208201 4.8255 0.485803L4.73875 1.22969C4.30933 1.34463 3.89943 1.51813 3.51773 1.74585L2.92132 1.27306C2.70228 1.09956 2.38998 1.11908 2.19262 1.31427L1.2774 2.22949C1.08004 2.42685 1.06269 2.73915 1.23619 2.95819L1.73501 3.5893C1.53548 3.94932 1.38367 4.33319 1.28391 4.73224L0.485803 4.82333C0.208201 4.85586 0 5.09009 0 5.36769V6.66244C0 6.94004 0.208201 7.17427 0.485803 7.2068L1.32726 7.30441ZM6.01829 3.80186C7.1981 3.80186 8.15886 4.76262 8.15886 5.94243C8.15886 7.12224 7.1981 8.083 6.01829 8.083C4.83851 8.083 3.87773 7.12224 3.87773 5.94243C3.87773 4.76262 4.83849 3.80186 6.01829 3.80186Z"
          fill="#112878"/>
    <path d="M18.8186 7.62382L18.1354 7.04693C17.9251 6.86909 17.6149 6.87776 17.4154 7.06645L17.0381 7.41995C16.7193 7.26597 16.3809 7.15753 16.0318 7.09464L15.9255 6.57414C15.8713 6.30521 15.6219 6.1187 15.3486 6.14038L14.4572 6.21629C14.184 6.24015 13.9693 6.46353 13.9606 6.73896L13.9433 7.26814C13.6006 7.39176 13.2774 7.56092 12.9825 7.77346L12.5314 7.47417C12.3015 7.32236 11.9957 7.36573 11.8179 7.5761L11.241 8.2636C11.0631 8.47397 11.0718 8.78411 11.2605 8.98363L11.6552 9.40435C11.5185 9.71231 11.4209 10.0355 11.3646 10.3673L10.8007 10.4822C10.5318 10.5364 10.3453 10.7859 10.3669 11.0591L10.4429 11.9505C10.4667 12.2238 10.6901 12.4385 10.9655 12.4471L11.5749 12.4666C11.6856 12.7573 11.8309 13.0327 12.0065 13.2908L11.6661 13.8048C11.5142 14.0347 11.5576 14.3405 11.768 14.5183L12.4511 15.0952C12.6615 15.273 12.9716 15.2643 13.1712 15.0757L13.6179 14.6571C13.9107 14.7937 14.2187 14.8957 14.5353 14.9564L14.6589 15.568C14.7132 15.8369 14.9626 16.0234 15.2358 16.0017L16.1272 15.9258C16.4005 15.902 16.6152 15.6786 16.6238 15.4031L16.6434 14.8045C16.9687 14.6896 17.2766 14.5335 17.5607 14.3405L18.0531 14.6658C18.2829 14.8176 18.5887 14.7742 18.7666 14.5638L19.3435 13.8807C19.5213 13.6703 19.5126 13.3602 19.324 13.1606L18.9271 12.7399C19.0724 12.432 19.1787 12.1066 19.2394 11.7726L19.7815 11.662C20.0505 11.6078 20.237 11.3584 20.2153 11.0851L20.1394 10.1938C20.1155 9.92049 19.8921 9.70579 19.6167 9.69711L19.0724 9.67976C18.9596 9.36312 18.8077 9.06385 18.6191 8.78623L18.9162 8.33947C19.0724 8.10962 19.029 7.80166 18.8186 7.62382ZM15.4592 12.7768C14.4963 12.8592 13.6461 12.1413 13.5659 11.1784C13.4834 10.2155 14.2013 9.36531 15.1642 9.28507C16.1272 9.20266 16.9774 9.92054 17.0576 10.8834C17.14 11.8464 16.4221 12.6966 15.4592 12.7768Z"
          fill="#112878"/>
</svg>
