<svg width="28" height="22" viewBox="0 0 28 22" fill="none" xmlns="http://www.w3.org/2000/svg">
    <g clip-path="url(#clip0)">
        <path d="M15.1667 12.9997C15.1667 12.5277 15.561 12.1426 16.0417 12.1426H20.4167V14.5712C20.4167 15.202 20.9393 15.714 21.5833 15.714C22.2273 15.714 22.75 15.202 22.75 14.5712V12.1426H27.125C27.6068 12.1426 28 12.5277 28 12.9997V19.1426C28 19.6146 27.6068 19.9997 27.125 19.9997H16.0417C15.561 19.9997 15.1667 19.6146 15.1667 19.1426V12.9997Z"
              fill="#112878"/>
        <path d="M-9.34601e-05 12.9997C-9.34601e-05 12.5277 0.39424 12.1426 0.874907 12.1426H5.24991V14.5712C5.24991 15.202 5.77258 15.714 6.41658 15.714C7.06058 15.714 7.58325 15.202 7.58325 14.5712V12.1426H11.9583C12.4401 12.1426 12.8333 12.5277 12.8333 12.9997V19.1426C12.8333 19.6146 12.4401 19.9997 11.9583 19.9997H0.874907C0.39424 19.9997 -9.34601e-05 19.6146 -9.34601e-05 19.1426V12.9997Z"
              fill="#112878"/>
        <path d="M7.5834 2.85714C7.5834 2.38629 7.97774 2 8.45841 2H12.8334C12.8334 2 12.8334 3.79771 12.8334 4.42857C12.8334 5.05943 13.3561 5.57143 14.0001 5.57143C14.6441 5.57143 15.1667 5.05943 15.1667 4.42857C15.1667 3.79771 15.1667 2 15.1667 2H19.5417C20.0236 2 20.4167 2.38629 20.4167 2.85714V9C20.4167 9.472 20.0236 9.85714 19.5417 9.85714H8.45841C7.97774 9.85714 7.5834 9.472 7.5834 9V2.85714Z"
              fill="#112878"/>
    </g>
    <defs>
        <clipPath id="clip0">
            <rect width="28" height="22" fill="white" transform="matrix(-1 0 0 1 28 0)"/>
        </clipPath>
    </defs>
</svg>
