<svg width="16" height="16" viewBox="0 0 16 16" fill="none" xmlns="http://www.w3.org/2000/svg">
    <path d="M11.1028 5.26326L5.23397 8.90315C5.13065 8.96723 5.08364 9.09306 5.11969 9.20919L5.90693 11.7459C5.92347 11.7992 6.00113 11.7918 6.00737 11.7364L6.19872 10.0354C6.20609 9.96971 6.23762 9.90908 6.28715 9.86526L11.257 5.47051C11.3759 5.36532 11.2378 5.17953 11.1028 5.26326Z" fill="#2BA2DE"/>
    <path d="M4 0C1.79086 0 0 1.79086 0 4V12C0 14.2091 1.79086 16 4 16H12C14.2091 16 16 14.2091 16 12V4C16 1.79086 14.2091 0 12 0H4ZM13.3371 4.15747L11.5103 12.891C11.4246 13.3009 10.9439 13.4849 10.6064 13.2372L7.84831 11.2127L6.44261 12.6479C6.1959 12.8998 5.76972 12.7979 5.66373 12.4616L4.64906 9.24191L1.93023 8.43905C1.57352 8.33372 1.55249 7.83641 1.89905 7.70135L12.5984 3.53191C13.0057 3.37322 13.4266 3.72964 13.3371 4.15747Z" fill="#2BA2DE"/>
</svg>
