<svg viewBox="0 0 194 29" fill="none" xmlns="http://www.w3.org/2000/svg">
    <path d="M5.31246 7.66375L16.1155 24.9371L16.1317 24.9521L31.7128 0H66.7621L49.7557 27.2123C49.4318 27.6763 48.8973 28.0056 48.2656 28.0505C48.2171 28.0505 48.1685 28.0505 48.1199 28.0505C48.0713 28.0505 48.0227 28.0505 47.9741 28.0505H15.4029C15.3705 28.0505 15.3381 28.0505 15.2895 28.0505C14.5445 28.0505 13.8966 27.6614 13.5727 27.0776L0.0971791 5.52329C0.032393 5.43348 0 5.31373 0 5.19399C0 4.83475 0.307734 4.55035 0.696451 4.55035H22.7075L20.7639 7.66375H5.31246Z"
          fill="#112878"/>
    <path d="M83.6164 27.5645C83.006 26.5783 82.3239 25.5228 81.5699 24.3981C80.816 23.2561 80.0351 22.1141 79.2273 20.9721C78.4195 19.8128 77.5937 18.6967 76.75 17.624C75.9242 16.5339 75.1344 15.5562 74.3804 14.6911V27.5645H71.0415V9.57805H73.815C74.533 10.3048 75.3049 11.1699 76.1307 12.1735C76.9564 13.1598 77.7822 14.1893 78.608 15.2621C79.4517 16.3349 80.2595 17.4163 81.0314 18.5064C81.8212 19.5792 82.5213 20.5828 83.1317 21.5171V9.57805H86.4975V27.5645H83.6164Z"
          fill="#081128"/>
    <path d="M103.549 20.7645C103.549 21.8372 103.387 22.8149 103.064 23.6973C102.741 24.5798 102.283 25.3325 101.691 25.9554C101.098 26.5783 100.38 27.0628 99.5365 27.4088C98.7107 27.7549 97.7952 27.9279 96.7899 27.9279C95.7847 27.9279 94.8692 27.7549 94.0434 27.4088C93.2176 27.0628 92.5086 26.5783 91.9162 25.9554C91.3238 25.3325 90.857 24.5798 90.516 23.6973C90.1928 22.8149 90.0313 21.8372 90.0313 20.7645C90.0313 19.6917 90.1928 18.7227 90.516 17.8576C90.857 16.9751 91.3238 16.2224 91.9162 15.5995C92.5265 14.9766 93.2446 14.5008 94.0703 14.172C94.8961 13.8259 95.8026 13.6529 96.7899 13.6529C97.7773 13.6529 98.6838 13.8259 99.5096 14.172C100.353 14.5008 101.071 14.9766 101.664 15.5995C102.256 16.2224 102.714 16.9751 103.037 17.8576C103.378 18.7227 103.549 19.6917 103.549 20.7645ZM100.21 20.7645C100.21 19.4148 99.9045 18.3507 99.2941 17.5721C98.7017 16.7761 97.867 16.3781 96.7899 16.3781C95.7129 16.3781 94.8692 16.7761 94.2588 17.5721C93.6664 18.3507 93.3702 19.4148 93.3702 20.7645C93.3702 22.1314 93.6664 23.2128 94.2588 24.0088C94.8692 24.8047 95.7129 25.2027 96.7899 25.2027C97.867 25.2027 98.7017 24.8047 99.2941 24.0088C99.9045 23.2128 100.21 22.1314 100.21 20.7645Z"
          fill="#081128"/>
    <path d="M106.744 10.4086L110.002 9.88951V13.9903H115.01V16.6117H110.002V22.14C110.002 23.2301 110.181 24.0088 110.54 24.476C110.899 24.9431 111.51 25.1767 112.371 25.1767C112.964 25.1767 113.484 25.1162 113.933 24.995C114.4 24.8739 114.768 24.7615 115.037 24.6576L115.576 27.1493C115.199 27.305 114.705 27.4607 114.095 27.6165C113.484 27.7895 112.766 27.876 111.941 27.876C110.935 27.876 110.092 27.7462 109.409 27.4867C108.745 27.2271 108.216 26.8551 107.821 26.3706C107.426 25.8689 107.148 25.2719 106.986 24.5798C106.824 23.8704 106.744 23.0658 106.744 22.166V10.4086Z"
          fill="#081128"/>
    <path d="M117.142 20.8423C117.142 19.6484 117.322 18.6016 117.681 17.7018C118.058 16.8021 118.551 16.058 119.162 15.4697C119.772 14.8641 120.472 14.4142 121.262 14.1201C122.052 13.8086 122.86 13.6529 123.685 13.6529C125.624 13.6529 127.132 14.2326 128.209 15.3919C129.304 16.5512 129.852 18.2815 129.852 20.5828C129.852 20.7558 129.843 20.9548 129.825 21.1797C129.825 21.3874 129.816 21.5777 129.798 21.7507H120.508C120.598 22.8408 120.993 23.6887 121.693 24.2943C122.411 24.8826 123.443 25.1767 124.789 25.1767C125.579 25.1767 126.297 25.1075 126.944 24.9691C127.608 24.8307 128.128 24.6836 128.505 24.5279L128.936 27.0974C128.757 27.1839 128.505 27.279 128.182 27.3829C127.877 27.4694 127.518 27.5472 127.105 27.6165C126.71 27.703 126.279 27.7722 125.813 27.8241C125.346 27.876 124.87 27.902 124.386 27.902C123.147 27.902 122.07 27.7289 121.154 27.3829C120.239 27.0195 119.485 26.5264 118.893 25.9035C118.3 25.2632 117.86 24.5192 117.573 23.6714C117.286 22.8062 117.142 21.8632 117.142 20.8423ZM126.594 19.4408C126.594 19.0082 126.531 18.6016 126.405 18.2209C126.279 17.8229 126.091 17.4855 125.84 17.2087C125.606 16.9145 125.31 16.6896 124.951 16.5339C124.61 16.3608 124.197 16.2743 123.712 16.2743C123.21 16.2743 122.77 16.3695 122.393 16.5598C122.016 16.7329 121.693 16.9664 121.424 17.2606C121.172 17.5547 120.975 17.8922 120.831 18.2728C120.688 18.6535 120.589 19.0428 120.535 19.4408H126.594Z"
          fill="#081128"/>
    <path d="M142.65 20.7385C142.65 19.4062 142.372 18.3507 141.815 17.5721C141.277 16.7934 140.415 16.4041 139.23 16.4041C138.692 16.4041 138.18 16.482 137.695 16.6377C137.229 16.7934 136.852 16.9664 136.564 17.1568V24.9691C136.798 25.021 137.094 25.0729 137.453 25.1248C137.83 25.1594 138.279 25.1767 138.799 25.1767C140.002 25.1767 140.944 24.7874 141.627 24.0088C142.309 23.2128 142.65 22.1227 142.65 20.7385ZM145.989 20.7904C145.989 21.8805 145.818 22.8668 145.477 23.7492C145.154 24.6144 144.678 25.3584 144.05 25.9813C143.44 26.6042 142.695 27.0801 141.815 27.4088C140.935 27.7376 139.939 27.902 138.826 27.902C137.749 27.902 136.717 27.8241 135.73 27.6684C134.76 27.5126 133.952 27.3396 133.306 27.1493V7.94292L136.564 7.42383V14.4575C136.941 14.2672 137.399 14.0941 137.938 13.9384C138.494 13.7827 139.104 13.7048 139.769 13.7048C140.756 13.7048 141.636 13.8779 142.407 14.2239C143.197 14.5527 143.853 15.0285 144.373 15.6514C144.894 16.2743 145.289 17.027 145.558 17.9095C145.845 18.7746 145.989 19.7349 145.989 20.7904Z"
          fill="#081128"/>
    <path d="M162.083 20.7645C162.083 21.8372 161.921 22.8149 161.598 23.6973C161.275 24.5798 160.817 25.3325 160.225 25.9554C159.633 26.5783 158.915 27.0628 158.071 27.4088C157.245 27.7549 156.33 27.9279 155.324 27.9279C154.319 27.9279 153.404 27.7549 152.578 27.4088C151.752 27.0628 151.043 26.5783 150.451 25.9554C149.858 25.3325 149.392 24.5798 149.05 23.6973C148.727 22.8149 148.566 21.8372 148.566 20.7645C148.566 19.6917 148.727 18.7227 149.05 17.8576C149.392 16.9751 149.858 16.2224 150.451 15.5995C151.061 14.9766 151.779 14.5008 152.605 14.172C153.431 13.8259 154.337 13.6529 155.324 13.6529C156.312 13.6529 157.218 13.8259 158.044 14.172C158.888 14.5008 159.606 14.9766 160.198 15.5995C160.791 16.2224 161.248 16.9751 161.571 17.8576C161.913 18.7227 162.083 19.6917 162.083 20.7645ZM158.744 20.7645C158.744 19.4148 158.439 18.3507 157.829 17.5721C157.236 16.7761 156.401 16.3781 155.324 16.3781C154.247 16.3781 153.404 16.7761 152.793 17.5721C152.201 18.3507 151.905 19.4148 151.905 20.7645C151.905 22.1314 152.201 23.2128 152.793 24.0088C153.404 24.8047 154.247 25.2027 155.324 25.2027C156.401 25.2027 157.236 24.8047 157.829 24.0088C158.439 23.2128 158.744 22.1314 158.744 20.7645Z"
          fill="#081128"/>
    <path d="M178.176 20.7645C178.176 21.8372 178.015 22.8149 177.691 23.6973C177.368 24.5798 176.911 25.3325 176.318 25.9554C175.726 26.5783 175.008 27.0628 174.164 27.4088C173.338 27.7549 172.423 27.9279 171.417 27.9279C170.412 27.9279 169.497 27.7549 168.671 27.4088C167.845 27.0628 167.136 26.5783 166.544 25.9554C165.951 25.3325 165.485 24.5798 165.143 23.6973C164.82 22.8149 164.659 21.8372 164.659 20.7645C164.659 19.6917 164.82 18.7227 165.143 17.8576C165.485 16.9751 165.951 16.2224 166.544 15.5995C167.154 14.9766 167.872 14.5008 168.698 14.172C169.524 13.8259 170.43 13.6529 171.417 13.6529C172.405 13.6529 173.311 13.8259 174.137 14.172C174.981 14.5008 175.699 14.9766 176.291 15.5995C176.884 16.2224 177.341 16.9751 177.664 17.8576C178.006 18.7227 178.176 19.6917 178.176 20.7645ZM174.837 20.7645C174.837 19.4148 174.532 18.3507 173.922 17.5721C173.329 16.7761 172.494 16.3781 171.417 16.3781C170.34 16.3781 169.497 16.7761 168.886 17.5721C168.294 18.3507 167.998 19.4148 167.998 20.7645C167.998 22.1314 168.294 23.2128 168.886 24.0088C169.497 24.8047 170.34 25.2027 171.417 25.2027C172.494 25.2027 173.329 24.8047 173.922 24.0088C174.532 23.2128 174.837 22.1314 174.837 20.7645Z"
          fill="#081128"/>
    <path d="M184.791 19.2851C185.204 18.8698 185.644 18.4286 186.11 17.9614C186.577 17.4769 187.035 17.0011 187.484 16.5339C187.932 16.0494 188.354 15.5909 188.749 15.1583C189.162 14.7084 189.512 14.3191 189.799 13.9903H193.65C192.752 14.9593 191.801 15.9629 190.796 17.0011C189.808 18.0392 188.812 19.0515 187.807 20.0377C188.345 20.4703 188.911 20.9981 189.503 21.621C190.095 22.2266 190.67 22.8754 191.226 23.5675C191.783 24.2597 192.303 24.9518 192.788 25.6439C193.273 26.336 193.677 26.9762 194 27.5645H190.23C189.907 27.0282 189.53 26.4658 189.099 25.8775C188.686 25.2892 188.237 24.7182 187.753 24.1645C187.268 23.6108 186.774 23.0917 186.272 22.6072C185.769 22.1054 185.276 21.6815 184.791 21.3355V27.5645H181.533V9.59295L184.791 9.07386V19.2851Z"
          fill="#081128"/>
    <path d="M144.961 5.76063C144.587 5.76063 144.23 5.6991 143.888 5.57603C143.546 5.4484 143.23 5.25469 142.939 4.99487L143.452 4.39321C143.687 4.59376 143.925 4.74874 144.165 4.85813C144.41 4.96297 144.682 5.01539 144.982 5.01539C145.245 5.01539 145.453 4.96069 145.605 4.85129C145.762 4.73734 145.841 4.59148 145.841 4.41372V4.40004C145.841 4.31344 145.825 4.23823 145.792 4.17442C145.765 4.10605 145.709 4.04223 145.626 3.98298C145.548 3.92372 145.437 3.86903 145.294 3.81889C145.155 3.76875 144.973 3.71861 144.747 3.66847C144.488 3.60921 144.257 3.54312 144.054 3.47019C143.856 3.3927 143.687 3.30154 143.549 3.19671C143.415 3.08731 143.311 2.95513 143.237 2.80015C143.168 2.64518 143.133 2.4583 143.133 2.23951V2.22583C143.133 2.02072 143.175 1.83384 143.258 1.66519C143.341 1.49198 143.454 1.34612 143.597 1.22761C143.745 1.10454 143.92 1.00882 144.123 0.94045C144.327 0.872079 144.548 0.837893 144.788 0.837893C145.144 0.837893 145.462 0.890311 145.744 0.995147C146.03 1.09543 146.298 1.24356 146.547 1.43956L146.09 2.07542C145.869 1.91588 145.649 1.79509 145.432 1.71305C145.215 1.62644 144.996 1.58314 144.774 1.58314C144.525 1.58314 144.331 1.63784 144.193 1.74723C144.054 1.85663 143.985 1.99109 143.985 2.15062V2.1643C143.985 2.25546 144.001 2.33751 144.033 2.41044C144.066 2.47881 144.126 2.54262 144.213 2.60188C144.301 2.65657 144.419 2.70899 144.567 2.75913C144.714 2.80927 144.906 2.86169 145.141 2.91638C145.395 2.9802 145.619 3.05085 145.813 3.12833C146.007 3.20582 146.169 3.30154 146.298 3.4155C146.432 3.52489 146.531 3.65479 146.596 3.80521C146.66 3.95107 146.693 4.122 146.693 4.318V4.33167C146.693 4.55502 146.649 4.75557 146.561 4.93334C146.478 5.11111 146.36 5.26152 146.208 5.38459C146.056 5.50766 145.873 5.6011 145.661 5.66491C145.449 5.72873 145.215 5.76063 144.961 5.76063Z"
          fill="#081128"/>
    <path d="M151.044 0.906264H154.638V1.65835H151.895V2.90271H154.326V3.66163H151.895V4.94018H154.673V5.69226H151.044V0.906264Z"
          fill="#081128"/>
    <path d="M159.032 0.906264H161.193C161.498 0.906264 161.768 0.949566 162.003 1.03617C162.239 1.11822 162.435 1.23445 162.592 1.38486C162.721 1.51705 162.82 1.66975 162.89 1.84295C162.959 2.01616 162.994 2.2076 162.994 2.41727V2.43095C162.994 2.82294 162.885 3.13973 162.668 3.38131C162.456 3.61833 162.181 3.7847 161.844 3.88042L163.153 5.69226H162.142L160.951 4.024H159.884V5.69226H159.032V0.906264ZM161.131 3.27875C161.435 3.27875 161.678 3.2081 161.858 3.0668C162.038 2.92094 162.128 2.72494 162.128 2.47881V2.46513C162.128 2.20532 162.04 2.00932 161.865 1.87714C161.689 1.7404 161.442 1.67202 161.124 1.67202H159.884V3.27875H161.131Z"
          fill="#081128"/>
    <path d="M166.835 0.906264H167.777L169.238 4.58465L170.693 0.906264H171.614L169.605 5.72645H168.844L166.835 0.906264Z"
          fill="#081128"/>
    <path d="M175.842 0.906264H176.694V5.69226H175.842V0.906264Z" fill="#081128"/>
    <path d="M183.592 5.77431C183.236 5.77431 182.908 5.7105 182.608 5.58287C182.308 5.45524 182.047 5.28203 181.826 5.06325C181.609 4.8399 181.438 4.57781 181.313 4.27697C181.189 3.97614 181.126 3.65479 181.126 3.31294V3.29926C181.126 2.95741 181.186 2.63834 181.306 2.34206C181.431 2.04123 181.604 1.77914 181.826 1.55579C182.047 1.32789 182.311 1.15012 182.615 1.0225C182.92 0.890311 183.255 0.824219 183.619 0.824219C183.846 0.824219 184.049 0.842451 184.229 0.878916C184.414 0.91538 184.582 0.967798 184.734 1.03617C184.887 1.09998 185.028 1.17747 185.157 1.26863C185.286 1.35979 185.409 1.46007 185.524 1.56947L184.977 2.19165C184.778 2.01388 184.571 1.87258 184.354 1.76774C184.141 1.65835 183.894 1.60365 183.613 1.60365C183.382 1.60365 183.169 1.64695 182.975 1.73356C182.782 1.82016 182.613 1.94095 182.47 2.09593C182.331 2.24634 182.221 2.42411 182.137 2.62922C182.059 2.83434 182.02 3.05313 182.02 3.28559V3.29926C182.02 3.53173 182.059 3.75279 182.137 3.96247C182.216 4.16758 182.327 4.34763 182.47 4.5026C182.613 4.65302 182.782 4.77381 182.975 4.86497C183.174 4.95157 183.389 4.99487 183.619 4.99487C183.915 4.99487 184.169 4.94018 184.381 4.83078C184.594 4.72139 184.804 4.57097 185.011 4.37953L185.559 4.9265C185.434 5.05869 185.302 5.1772 185.164 5.28203C185.03 5.38231 184.885 5.4712 184.728 5.54868C184.571 5.62161 184.397 5.67631 184.208 5.71277C184.023 5.7538 183.818 5.77431 183.592 5.77431Z"
          fill="#081128"/>
    <path d="M189.81 0.906264H193.404V1.65835H190.662V2.90271H193.092V3.66163H190.662V4.94018H193.439V5.69226H189.81V0.906264Z"
          fill="#081128"/>
    <path d="M144.961 5.76063C144.587 5.76063 144.23 5.6991 143.888 5.57603C143.546 5.4484 143.23 5.25469 142.939 4.99487L143.452 4.39321C143.687 4.59376 143.925 4.74874 144.165 4.85813C144.41 4.96297 144.682 5.01539 144.982 5.01539C145.245 5.01539 145.453 4.96069 145.605 4.85129C145.762 4.73734 145.841 4.59148 145.841 4.41372V4.40004C145.841 4.31344 145.825 4.23823 145.792 4.17442C145.765 4.10605 145.709 4.04223 145.626 3.98298C145.548 3.92372 145.437 3.86903 145.294 3.81889C145.155 3.76875 144.973 3.71861 144.747 3.66847C144.488 3.60921 144.257 3.54312 144.054 3.47019C143.856 3.3927 143.687 3.30154 143.549 3.19671C143.415 3.08731 143.311 2.95513 143.237 2.80015C143.168 2.64518 143.133 2.4583 143.133 2.23951V2.22583C143.133 2.02072 143.175 1.83384 143.258 1.66519C143.341 1.49198 143.454 1.34612 143.597 1.22761C143.745 1.10454 143.92 1.00882 144.123 0.94045C144.327 0.872079 144.548 0.837893 144.788 0.837893C145.144 0.837893 145.462 0.890311 145.744 0.995147C146.03 1.09543 146.298 1.24356 146.547 1.43956L146.09 2.07542C145.869 1.91588 145.649 1.79509 145.432 1.71305C145.215 1.62644 144.996 1.58314 144.774 1.58314C144.525 1.58314 144.331 1.63784 144.193 1.74723C144.054 1.85663 143.985 1.99109 143.985 2.15062V2.1643C143.985 2.25546 144.001 2.33751 144.033 2.41044C144.066 2.47881 144.126 2.54262 144.213 2.60188C144.301 2.65657 144.419 2.70899 144.567 2.75913C144.714 2.80927 144.906 2.86169 145.141 2.91638C145.395 2.9802 145.619 3.05085 145.813 3.12833C146.007 3.20582 146.169 3.30154 146.298 3.4155C146.432 3.52489 146.531 3.65479 146.596 3.80521C146.66 3.95107 146.693 4.122 146.693 4.318V4.33167C146.693 4.55502 146.649 4.75557 146.561 4.93334C146.478 5.11111 146.36 5.26152 146.208 5.38459C146.056 5.50766 145.873 5.6011 145.661 5.66491C145.449 5.72873 145.215 5.76063 144.961 5.76063Z"
          stroke="#081128" stroke-width="0.2"/>
    <path d="M151.044 0.906264H154.638V1.65835H151.895V2.90271H154.326V3.66163H151.895V4.94018H154.673V5.69226H151.044V0.906264Z"
          stroke="#081128" stroke-width="0.2"/>
    <path d="M159.032 0.906264H161.193C161.498 0.906264 161.768 0.949566 162.003 1.03617C162.239 1.11822 162.435 1.23445 162.592 1.38486C162.721 1.51705 162.82 1.66975 162.89 1.84295C162.959 2.01616 162.994 2.2076 162.994 2.41727V2.43095C162.994 2.82294 162.885 3.13973 162.668 3.38131C162.456 3.61833 162.181 3.7847 161.844 3.88042L163.153 5.69226H162.142L160.951 4.024H159.884V5.69226H159.032V0.906264ZM161.131 3.27875C161.435 3.27875 161.678 3.2081 161.858 3.0668C162.038 2.92094 162.128 2.72494 162.128 2.47881V2.46513C162.128 2.20532 162.04 2.00932 161.865 1.87714C161.689 1.7404 161.442 1.67202 161.124 1.67202H159.884V3.27875H161.131Z"
          stroke="#081128" stroke-width="0.2"/>
    <path d="M166.835 0.906264H167.777L169.238 4.58465L170.693 0.906264H171.614L169.605 5.72645H168.844L166.835 0.906264Z"
          stroke="#081128" stroke-width="0.2"/>
    <path d="M175.842 0.906264H176.694V5.69226H175.842V0.906264Z" stroke="#081128" stroke-width="0.2"/>
    <path d="M183.592 5.77431C183.236 5.77431 182.908 5.7105 182.608 5.58287C182.308 5.45524 182.047 5.28203 181.826 5.06325C181.609 4.8399 181.438 4.57781 181.313 4.27697C181.189 3.97614 181.126 3.65479 181.126 3.31294V3.29926C181.126 2.95741 181.186 2.63834 181.306 2.34206C181.431 2.04123 181.604 1.77914 181.826 1.55579C182.047 1.32789 182.311 1.15012 182.615 1.0225C182.92 0.890311 183.255 0.824219 183.619 0.824219C183.846 0.824219 184.049 0.842451 184.229 0.878916C184.414 0.91538 184.582 0.967798 184.734 1.03617C184.887 1.09998 185.028 1.17747 185.157 1.26863C185.286 1.35979 185.409 1.46007 185.524 1.56947L184.977 2.19165C184.778 2.01388 184.571 1.87258 184.354 1.76774C184.141 1.65835 183.894 1.60365 183.613 1.60365C183.382 1.60365 183.169 1.64695 182.975 1.73356C182.782 1.82016 182.613 1.94095 182.47 2.09593C182.331 2.24634 182.221 2.42411 182.137 2.62922C182.059 2.83434 182.02 3.05313 182.02 3.28559V3.29926C182.02 3.53173 182.059 3.75279 182.137 3.96247C182.216 4.16758 182.327 4.34763 182.47 4.5026C182.613 4.65302 182.782 4.77381 182.975 4.86497C183.174 4.95157 183.389 4.99487 183.619 4.99487C183.915 4.99487 184.169 4.94018 184.381 4.83078C184.594 4.72139 184.804 4.57097 185.011 4.37953L185.559 4.9265C185.434 5.05869 185.302 5.1772 185.164 5.28203C185.03 5.38231 184.885 5.4712 184.728 5.54868C184.571 5.62161 184.397 5.67631 184.208 5.71277C184.023 5.7538 183.818 5.77431 183.592 5.77431Z"
          stroke="#081128" stroke-width="0.2"/>
    <path d="M189.81 0.906264H193.404V1.65835H190.662V2.90271H193.092V3.66163H190.662V4.94018H193.439V5.69226H189.81V0.906264Z"
          stroke="#081128" stroke-width="0.2"/>
</svg>
