<svg width="100" height="70" viewBox="0 0 67 29" fill="none" xmlns="http://www.w3.org/2000/svg">
    <path d="M5.31246 7.66375L16.1155 24.9371L16.1317 24.9521L31.7128 0H66.7621L49.7557 27.2123C49.4318 27.6763 48.8973 28.0056 48.2656 28.0505C48.2171 28.0505 48.1685 28.0505 48.1199 28.0505C48.0713 28.0505 48.0227 28.0505 47.9741 28.0505H15.4029C15.3705 28.0505 15.3381 28.0505 15.2895 28.0505C14.5445 28.0505 13.8966 27.6614 13.5727 27.0776L0.0971791 5.52329C0.032393 5.43348 0 5.31373 0 5.19399C0 4.83475 0.307734 4.55035 0.696451 4.55035H22.7075L20.7639 7.66375H5.31246Z"
          fill="#112878"/>
</svg>
