<svg width="16" height="16" viewBox="0 0 16 16" fill="none" xmlns="http://www.w3.org/2000/svg">
    <path d="M10.694 3.1613C8.90632 2.82123 7.09341 2.82123 5.30538 3.1613C4.52334 3.33548 3.53947 4.27828 3.34712 5.03662C3.0272 6.50393 3.0272 7.99139 3.34712 9.4587C3.53947 10.217 4.52334 11.1598 5.30538 11.334C5.30558 11.3341 5.30578 11.3341 5.30597 11.3341C5.34081 11.341 5.36621 11.3711 5.36621 11.4067V13.5562C5.36621 13.6636 5.49734 13.7165 5.57199 13.6387L6.59298 12.5908C6.59298 12.5908 7.40658 11.7556 7.55288 11.6055C7.56718 11.5908 7.58693 11.5828 7.60738 11.5834C8.63822 11.612 9.67015 11.5287 10.694 11.3341C11.476 11.1599 12.4603 10.2171 12.6522 9.45874C12.9725 7.99143 12.9725 6.50397 12.6522 5.03666C12.4602 4.27828 11.4764 3.33548 10.694 3.1613ZM10.7212 9.56815C10.5648 9.90024 10.3372 10.1765 10.0089 10.3529C9.9163 10.4026 9.80559 10.4187 9.70104 10.4509C9.58081 10.4144 9.46623 10.3899 9.35983 10.3457C8.25723 9.88827 7.24247 9.2981 6.43867 8.39343C5.98157 7.87898 5.62377 7.29817 5.32138 6.68352C5.17796 6.39204 5.0571 6.08913 4.93391 5.78821C4.82154 5.51378 4.98704 5.23027 5.16126 5.02351C5.32474 4.82946 5.5351 4.68095 5.76291 4.5715C5.94073 4.48607 6.11614 4.53532 6.246 4.68604C6.52675 5.01189 6.78462 5.35441 6.99344 5.73212C7.12185 5.96444 7.08662 6.24842 6.8539 6.40653C6.79734 6.44496 6.7458 6.49007 6.69311 6.53347C6.6469 6.57151 6.60341 6.60994 6.57173 6.66144C6.51383 6.75564 6.51107 6.86683 6.54835 6.96928C6.83534 7.75796 7.31906 8.37123 8.11287 8.70154C8.23993 8.75439 8.36747 8.81593 8.5138 8.79886C8.75888 8.77023 8.83823 8.50141 9.00996 8.36096C9.17782 8.22371 9.39233 8.22189 9.57315 8.33631C9.75401 8.45078 9.92933 8.57365 10.1036 8.69783C10.2747 8.81972 10.445 8.93896 10.6028 9.07791C10.7544 9.21149 10.8066 9.38678 10.7212 9.56815ZM9.29758 6.99812C9.22913 6.99934 9.25603 6.998 9.28206 6.99725C9.17174 6.99338 9.11175 6.92844 9.0999 6.82287C9.09125 6.74573 9.08441 6.66757 9.06601 6.59252C9.02975 6.44472 8.95119 6.30775 8.82689 6.21718C8.7682 6.17441 8.70169 6.1432 8.63202 6.12314C8.5435 6.09759 8.45159 6.10462 8.36328 6.08297C8.26738 6.05951 8.21433 5.98182 8.22938 5.89185C8.24309 5.80997 8.32275 5.74606 8.41221 5.75254C8.97137 5.79291 9.371 6.08198 9.42804 6.74028C9.43207 6.78673 9.43681 6.83578 9.4265 6.88022C9.40975 6.95246 9.35813 6.99006 9.30595 6.99689C9.31022 6.99697 9.30939 6.99733 9.29758 6.99812ZM8.94989 5.49253C8.77831 5.40852 8.59276 5.35631 8.40467 5.32518C8.32248 5.3116 8.23942 5.30334 8.15683 5.29185C8.05674 5.27794 8.00334 5.21416 8.00804 5.11553C8.01247 5.02311 8.08001 4.95664 8.18072 4.96232C8.51171 4.98112 8.8314 5.05265 9.12565 5.20847C9.72403 5.52535 10.0658 6.02554 10.1656 6.69344C10.1701 6.72369 10.1774 6.75367 10.1797 6.78404C10.1854 6.85901 10.1889 6.93409 10.1946 7.03295C10.1923 7.05096 10.191 7.0933 10.1805 7.1332C10.1422 7.27799 9.9227 7.29612 9.87214 7.14998C9.85717 7.10661 9.85492 7.05728 9.85484 7.0106C9.85433 6.70513 9.78793 6.39997 9.6339 6.1342C9.47555 5.86112 9.23359 5.63148 8.94989 5.49253ZM10.7988 7.55668C10.6832 7.55806 10.6312 7.46134 10.6237 7.35766C10.6088 7.15243 10.5986 6.9463 10.5703 6.74277C10.421 5.66841 9.56426 4.77957 8.49492 4.58884C8.33401 4.56013 8.16927 4.55258 8.0063 4.53548C7.90326 4.52466 7.7683 4.51842 7.74547 4.39033C7.72631 4.28294 7.81696 4.19743 7.91921 4.19194C7.94702 4.19044 7.97498 4.1917 8.00291 4.19182C9.38787 4.23064 8.08743 4.19482 8.00662 4.19201C9.44715 4.234 10.6299 5.19062 10.8835 6.61519C10.9268 6.85814 10.9422 7.10654 10.9614 7.35312C10.9695 7.45679 10.9108 7.55534 10.7988 7.55668Z" fill="#7461F2"/>
    <path d="M4.125 0.125C1.91586 0.125 0.125 1.91586 0.125 4.125V11.875C0.125 14.0841 1.91586 15.875 4.125 15.875H11.875C14.0841 15.875 15.875 14.0841 15.875 11.875V4.125C15.875 1.91586 14.0841 0.125 11.875 0.125H4.125ZM13.6927 9.69503L13.6892 9.70925C13.4016 10.8716 12.1053 12.119 10.9149 12.3785L10.9015 12.3812C9.93893 12.5649 8.96928 12.6565 8.00002 12.6565C7.71473 12.6565 7.42945 12.6476 7.14432 12.6317L5.82966 13.9982C5.50421 14.3371 4.93189 14.1065 4.93189 13.6368V12.3393C3.78589 12.012 2.58613 10.822 2.31048 9.70921L2.30732 9.69499C1.95185 8.07167 1.95185 6.42543 2.30732 4.80211L2.31048 4.78789C2.59841 3.62549 3.8947 2.37818 5.08475 2.11868L5.09857 2.11592C7.02365 1.7486 8.97599 1.7486 10.9015 2.11592L10.9149 2.11868C12.1053 2.37818 13.4016 3.62549 13.6892 4.78789L13.6927 4.80211C14.0482 6.42547 14.0482 8.07171 13.6927 9.69503Z" fill="#7461F2"/>
</svg>
